PathFileType	4	(X/Y/Z)	59_2_44_p0_0-271_filt_butterworth.trc
DataRate	CameraRate	NumFrames	NumMarkers	Units	OrigDataRate	OrigDataStartFrame	OrigNumFrames
60.0	60.0	4	27	m	60.0	0	271
Frame#	Time	RHip			RKnee			RAnkle			RBigToe			RSmallToe			RHeel			LHip			LKnee			LAnkle			LBigToe			LSmallToe			LHeel			Neck			Head			Nose			RShoulder			RElbow			RWrist			RThumb			RIndex			RPinky			LShoulder			LElbow			LWrist			LThumb			LIndex			LPinky			
		X1	Y1	Z1	X2	Y2	Z2	X3	Y3	Z3	X4	Y4	Z4	X5	Y5	Z5	X6	Y6	Z6	X7	Y7	Z7	X8	Y8	Z8	X9	Y9	Z9	X10	Y10	Z10	X11	Y11	Z11	X12	Y12	Z12	X13	Y13	Z13	X14	Y14	Z14	X15	Y15	Z15	X16	Y16	Z16	X17	Y17	Z17	X18	Y18	Z18	X19	Y19	Z19	X20	Y20	Z20	X21	Y21	Z21	X22	Y22	Z22	X23	Y23	Z23	X24	Y24	Z24	X25	Y25	Z25	X26	Y26	Z26	X27	Y27	Z27	
0	0.0	0.3173543844995001	0.9428315029120093	0.4848779922278063	0.29561087689342563	0.46547194342920384	0.5990824340652363	0.28566917935806035	-0.004681510725143126	0.7622555471962228	0.27595602913582784	-0.019888659982925046	0.5505552550741949	0.33309282037928445	-0.035638937556908314	0.6138599563422396	0.27952832725812743	-0.06343331658370364	0.8159435983931197	0.10265014294453408	0.9294154816876254	0.4889653294894618	0.10295474705611393	0.4483212348749337	0.6475815630050896	0.11814812143172648	0.011034488619633853	0.7541321619509536	0.13355755405800196	-0.01783153878934702	0.5632539930687517	0.07166161490802378	-0.016691881172256805	0.6104839167492409	0.14414618277578467	-0.06022143934443594	0.8311411426388855	0.20687534652630132	1.5660943876544684	0.4442984685855118	0.19385642214182436	1.8291458536347527	0.38705652062837526	0.18849576877515564	1.6942544699199356	0.3253922162110439	0.3752885886125878	1.457504340267454	0.48869799436178807	0.4115693686944537	1.1620819242524143	0.4423397449956215	0.2910860723280412	0.9262276786093782	0.37613814966103587	0.18646293375885756	0.8549283480739048	0.3663570460748924	0.19087207593382002	0.8228488046420238	0.40877958456049474	0.2244352974347968	0.822304740842621	0.3771365555467762	0.04269322353223467	1.4482392372946065	0.48514532735548	0.022631003153801406	1.1404983944765217	0.4688008350495191	0.17235878386027478	0.956146465239596	0.33689220494280714	0.26409720691924193	0.8933996163994364	0.34028841259087034	0.2661975720464583	0.8605892898126257	0.333738301145857	0.24269531148341572	0.8418332558122439	0.36137090574805825	
1	0.0166666666666666	0.3169769980817532	0.943193827599331	0.48662429991168754	0.29540896068414013	0.4663978384940188	0.5992753307917142	0.28621737634647954	-0.0051624634220413385	0.7649964592343061	0.2750417995582377	-0.022680580879708742	0.5492967950949056	0.3343604170454008	-0.03045706870315039	0.6035854672359201	0.2802108035953076	-0.06465947097320654	0.8184924008176991	0.1026477510814413	0.928325567004363	0.4889095584483816	0.10342045247365729	0.4497777928651348	0.646535131069239	0.11827391882031797	0.011646628462074163	0.7543099159343728	0.13569047925426983	-0.017869892354374105	0.5635036749431489	0.07458746011698648	-0.017932711256680098	0.6132254881755406	0.14494016524696504	-0.058224790267370125	0.828570403984842	0.20609543260981583	1.5663383995679978	0.44677677675085314	0.19388542484101473	1.8292060249823812	0.3870019556645998	0.18589669912468618	1.694183792322379	0.3249046308477208	0.37342951192983426	1.4588891110868747	0.4948709263655342	0.413482359854826	1.1605388694195233	0.44278956708152106	0.2903061940315326	0.9240117143507997	0.37865431277005945	0.18678021305467504	0.8540135550238998	0.36589832055500204	0.1940191532720831	0.8174038126718601	0.4076119638098108	0.2229285630627438	0.8187320335446681	0.38172794144178457	0.04268128233145947	1.4482817471687162	0.4851489661229267	0.022674339894361212	1.1405193820766433	0.4687542083630311	0.1719914060785071	0.955882294254442	0.33776485606377205	0.26259014399682357	0.8943600143286481	0.33540499517841543	0.2662176679453455	0.8604736187483197	0.33373754806743033	0.2407119852082683	0.8448718320113746	0.359543647722868	
2	0.0333333333333333	0.31671537338184014	0.9435463772714312	0.48787729761358706	0.29519543391187664	0.4672443666994647	0.5992502958882191	0.2866329121106247	-0.005484220386159103	0.7671202986247612	0.27458273021738505	-0.02450553672473481	0.549084269825611	0.335386052264332	-0.027497608686772226	0.597814960391551	0.28078132041738574	-0.06568235994062117	0.8206228914285758	0.10264524972374918	0.92750121292304	0.48884893778404676	0.10377567421026884	0.45093103026711556	0.6457897887259998	0.11839958854017665	0.012155424092149578	0.7544744678502324	0.13715565752424966	-0.018083336210581585	0.564018229084559	0.076764495040859	-0.01824674559637747	0.6141205041779859	0.1456071158656182	-0.05652072093835138	0.8264423594899981	0.2058451337900915	1.5664927126866983	0.4476008217958227	0.19392102105693174	1.8292581211014005	0.38696557634777645	0.18474536792151708	1.6941646148288165	0.3257207039040541	0.3722506579697199	1.459748186004964	0.499055358650824	0.41473099137684033	1.1595426644845006	0.4430851130316871	0.2899860791439814	0.9227527789261633	0.3796192155248063	0.18681529579731432	0.8530983185143	0.365651366954035	0.19533975533142808	0.8137023273143622	0.4072333058986972	0.2218521662206001	0.8162151244138007	0.38528824102630593	0.042678319182375975	1.4483197702811048	0.4851651205145016	0.022702744161604706	1.1405374859325197	0.4687062645971122	0.17183070052090887	0.9557522204276079	0.3381274800704139	0.2616383363767071	0.8950269951041815	0.33222770613002256	0.26624023349766085	0.8604590294051719	0.3336247021963047	0.23928954266759686	0.8464584844230126	0.3585519105709005	
3	0.05	0.31655778604526447	0.9438872034688516	0.48868558486753516	0.29497220071551317	0.4680196657524899	0.5990271560563284	0.28692925412568154	-0.0056652611918598245	0.7686872892687109	0.27445072921931957	-0.025499479889343958	0.5495607718654276	0.3361604080224675	-0.026247243797382913	0.5955034700512298	0.28124847215867194	-0.06651782410818793	0.8223673045336323	0.10264310215881765	0.926919420480743	0.4887838636793189	0.10403316451078863	0.45180930558411886	0.6453079536586728	0.11852454904571205	0.012568691371254659	0.754625867760804	0.13806594363518865	-0.018412281625604085	0.5646991816554621	0.07829882918711069	-0.017867643757188134	0.6136232242811731	0.14615661092475696	-0.05508931590637612	0.8247221211265552	0.20599208946006253	1.5665741328652074	0.4471808208941598	0.1939604617251476	1.8293020758271368	0.38694353578235613	0.1847693984834657	1.6941858156353875	0.3274858005718778	0.371621166477195	1.4601866577995204	0.5015610831146089	0.41543647443049425	1.1589894094922466	0.4432540769247646	0.2900430235704354	0.9222729302960722	0.3793108559158736	0.18666427394069451	0.8522214664599901	0.3655776434167585	0.19525835587997498	0.8114713773738218	0.4074407014986505	0.22110517666360288	0.8145304476045877	0.38803665398392523	0.042682369099972486	1.4483531535280916	0.485189097799844	0.022719565095254128	1.140552546590337	0.4686607896185942	0.17186727921224568	0.9557498065220758	0.33799973469248323	0.261138162293719	0.895452065536968	0.33044081232888484	0.2662663647842357	0.8605164909479154	0.33343720495835394	0.23836722945875244	0.8469140302090299	0.3582134491068303	
